<?xml version="1.0" encoding="UTF-8" standalone="no"?>
<!-- Created with Inkscape (http://www.inkscape.org/) -->

<svg
   width="144.54224mm"
   height="144.54231mm"
   viewBox="0 0 144.54224 144.54231"
   version="1.1"
   id="svg5"
   xml:space="preserve"
   inkscape:version="1.2.2 (732a01da63, 2022-12-09)"
   sodipodi:docname="michilogo.svg"
   xmlns:inkscape="http://www.inkscape.org/namespaces/inkscape"
   xmlns:sodipodi="http://sodipodi.sourceforge.net/DTD/sodipodi-0.dtd"
   xmlns="http://www.w3.org/2000/svg"
   xmlns:svg="http://www.w3.org/2000/svg"><sodipodi:namedview
     id="namedview7"
     pagecolor="#ffffff"
     bordercolor="#cccccc"
     borderopacity="1"
     inkscape:showpageshadow="0"
     inkscape:pageopacity="1"
     inkscape:pagecheckerboard="true"
     inkscape:deskcolor="#d1d1d1"
     inkscape:document-units="mm"
     showgrid="false"
     inkscape:zoom="0.38440306"
     inkscape:cx="2103.2611"
     inkscape:cy="634.75041"
     inkscape:window-width="1920"
     inkscape:window-height="1017"
     inkscape:window-x="-8"
     inkscape:window-y="-8"
     inkscape:window-maximized="1"
     inkscape:current-layer="svg5" /><defs
     id="defs2" /><g
     id="g15834"
     transform="translate(-694.49135,170.00927)"><circle
       style="fill:#131e26;fill-opacity:1;stroke-width:0.799999;stroke-linecap:round;stroke-linejoin:round"
       id="path15294"
       cx="766.76245"
       cy="-97.738121"
       r="72.271149"
       inkscape:export-filename="pictograma_noche.svg"
       inkscape:export-xdpi="96"
       inkscape:export-ydpi="96" /><g
       id="g15250"
       transform="translate(2.4507334,-1.762492)"><path
         id="path911-19-3"
         style="display:inline;fill:#fbffff;fill-opacity:1;stroke-width:0.799999;stroke-linecap:round;stroke-linejoin:round"
         d="m 746.91739,-139.98711 c -3.38574,0.0114 -6.79077,0.647 -10.04176,1.87895 -11.51153,4.36227 -21.33129,19.22334 -14.20121,35.44952 2.81427,-2.85538 23.3721,-22.00506 48.46682,0.2744 0.67534,-1.55537 5.63158,-13.86806 -1.53531,-25.01656 -5.50958,-8.57046 -14.03609,-12.61552 -22.68854,-12.58631 z"
         inkscape:export-filename="pictograma_noche.png"
         inkscape:export-xdpi="96"
         inkscape:export-ydpi="96" /><path
         id="path911-1-816-8"
         style="display:inline;fill:#41647e;fill-opacity:1;stroke-width:0.799999;stroke-linecap:round;stroke-linejoin:round"
         d="m 808.24054,-113.21728 c -0.0114,-3.38574 -0.647,-6.79077 -1.87896,-10.04177 -4.36226,-11.51153 -19.22334,-21.33128 -35.44952,-14.2012 2.85538,2.81426 22.00506,23.3721 -0.2744,48.466822 1.55537,0.67534 13.86806,5.63158 25.01656,-1.53531 8.57047,-5.50959 12.61552,-14.036092 12.58632,-22.688542 z" /><path
         id="path911-4-9-8"
         style="display:inline;fill:#fbffff;fill-opacity:1;stroke-width:0.799999;stroke-linecap:round;stroke-linejoin:round"
         d="m 781.70604,-51.964148 c 3.38575,-0.0114 6.79078,-0.647 10.04177,-1.87895 11.51153,-4.36227 21.33129,-19.22334 14.2012,-35.44952 -2.81426,2.85538 -23.3721,22.00506 -48.46681,-0.2744 -0.67534,1.55537 -5.63158,13.86806 1.5353,25.01656 5.50959,8.57046 14.0361,12.61552 22.68854,12.58631 z" /><path
         id="path911-1-8-9-8"
         style="display:inline;fill:#41647e;fill-opacity:1;stroke-width:0.799999;stroke-linecap:round;stroke-linejoin:round"
         d="m 720.3829,-78.733978 c 0.0114,3.38574 0.647,6.79077 1.87896,10.04177 4.36226,11.51153 19.22334,21.33128 35.44952,14.2012 -2.85538,-2.81426 -22.00506,-23.3721 0.2744,-48.466822 -1.55537,-0.67534 -13.86806,-5.63158 -25.01656,1.53531 -8.57047,5.509592 -12.61552,14.036092 -12.58632,22.688542 z" /></g></g></svg>
